<?xml version="1.0" encoding="utf-8"?>
<!-- Generator: Adobe Illustrator 18.0.0, SVG Export Plug-In . SVG Version: 6.00 Build 0)  -->
<!DOCTYPE svg PUBLIC "-//W3C//DTD SVG 1.1//EN" "http://www.w3.org/Graphics/SVG/1.1/DTD/svg11.dtd">
<svg version="1.1" id="Layer_1" xmlns="http://www.w3.org/2000/svg" xmlns:xlink="http://www.w3.org/1999/xlink" x="0px" y="0px"
	 viewBox="0 0 60 60" enable-background="new 0 0 60 60" xml:space="preserve">
<path fill="#40B31B" d="M30,0.4C13.7,0.4,0.4,13.7,0.4,30S13.6,59.6,30,59.6S59.6,46.3,59.6,30S46.3,0.4,30,0.4z M20,16.7
	c0.8-2.9,3.4-5,6.4-5h7.1c3,0,5.7,2,6.4,5l0.5,2h-21L20,16.7z M30,48.3c-7.5,0-13.7-6.1-13.7-13.6c0-1.3,0.2-2.6,0.5-3.8
	c1.3,0,2.5-0.2,3.8-0.5l0.8-0.2c0.7-0.2,1.5-0.3,2.3-0.3s1.5,0.1,2.3,0.3c1.3,0.3,2.6,0.5,4,0.5s2.7-0.2,4-0.5
	c0.7-0.2,1.5-0.3,2.3-0.3s1.5,0.1,2.3,0.3l0.8,0.2c1.2,0.3,2.5,0.5,3.8,0.5c0.4,1.2,0.5,2.5,0.5,3.8C43.6,42.2,37.5,48.3,30,48.3z
	 M45.1,28.4c-0.6,0.1-1.2,0.1-1.8,0.1c-1.1,0-2.3-0.1-3.4-0.4l-0.8-0.2c-0.9-0.2-1.9-0.3-2.8-0.3c-1,0-1.9,0.1-2.9,0.3
	c-1.1,0.3-2.3,0.4-3.4,0.4s-2.3-0.1-3.4-0.4c-0.9-0.2-1.9-0.3-2.9-0.3s-1.9,0.1-2.8,0.3l-0.8,0.2c-1.1,0.3-2.3,0.4-3.4,0.4
	c-0.6,0-1.2,0-1.8-0.1l-4.8-0.6c0.5-2.7,2.5-4.9,5.2-5.6l4.4-1.2h20.6l4.4,1.2c2.7,0.7,4.7,3,5.2,5.6L45.1,28.4z M25.9,38.8
	l-1.6,1.7c1.6,1.6,3.7,2.4,5.8,2.4s4.2-0.8,5.8-2.4l-1.7-1.7C31.8,41,28.1,41,25.9,38.8z M34.7,33.2c-0.6,0-1.2,0.5-1.2,1.2
	c0,0.6,0.5,1.2,1.2,1.2c0.6,0,1.2-0.5,1.2-1.2C35.8,33.7,35.3,33.2,34.7,33.2z M25.3,35.5c0.6,0,1.2-0.5,1.2-1.2
	c0-0.6-0.5-1.2-1.2-1.2c-0.6,0-1.2,0.5-1.2,1.2C24.2,35,24.7,35.5,25.3,35.5z"/>
</svg>
