<?xml version="1.0" encoding="utf-8"?>
<!-- Generator: Adobe Illustrator 18.0.0, SVG Export Plug-In . SVG Version: 6.00 Build 0)  -->
<!DOCTYPE svg PUBLIC "-//W3C//DTD SVG 1.1//EN" "http://www.w3.org/Graphics/SVG/1.1/DTD/svg11.dtd">
<svg version="1.1" id="Layer_1" xmlns="http://www.w3.org/2000/svg" xmlns:xlink="http://www.w3.org/1999/xlink" x="0px" y="0px"
	 viewBox="0 0 100 100" enable-background="new 0 0 100 100" xml:space="preserve">
<g>
	<g opacity="0.3">
		<circle fill="#EEF1F5" cx="50" cy="50" r="48.1"/>
	</g>
	<g>
		<path fill="#FAFAFB" d="M50,84.4C31,84.4,15.6,69,15.6,50C15.6,31,31,15.6,50,15.6C69,15.6,84.4,31,84.4,50
			C84.4,69,69,84.4,50,84.4z"/>
		<path fill="#F0F0F2" d="M50,17.8c17.8,0,32.2,14.5,32.2,32.2S67.8,82.2,50,82.2S17.8,67.8,17.8,50S32.2,17.8,50,17.8 M50,13.5
			c-20.2,0-36.5,16.3-36.5,36.5S29.8,86.5,50,86.5S86.5,70.2,86.5,50S70.2,13.5,50,13.5L50,13.5z"/>
	</g>
	<g>
		<g>
			<g>
				<linearGradient id="SVGID_1_" gradientUnits="userSpaceOnUse" x1="50.5365" y1="30.4594" x2="50.5365" y2="52.0521">
					<stop  offset="4.926108e-003" style="stop-color:#0C8E24"/>
					<stop  offset="0.665" style="stop-color:#3CB71E"/>
					<stop  offset="0.9803" style="stop-color:#7BFF1E"/>
				</linearGradient>
				<path fill="url(#SVGID_1_)" d="M68.2,31.3v1.6c0,0.2,0,0.4,0,0.6c-0.3,5.9-5.2,10.6-11.2,10.6h-2.3c-0.3,0.4-0.5,0.9-0.7,1.3
					c-0.6,1.2-1.1,2.5-1.4,3.8l1,1.5l-3.1,2.1l-3.1-2.1l1-1.5l0-0.3c-0.3-1-0.7-2.1-1.1-3.2c-0.3-0.6-0.6-1.1-0.9-1.7h-2.3
					c-6.2,0-11.2-5-11.2-11.2v-1.6h4.8c6,0,10.9,4.8,11.2,10.7c0.6,1,1.2,2.1,1.7,3.2c0.5-1.1,1-2.2,1.7-3.2
					c0.3-5.9,5.2-10.7,11.2-10.7H68.2z"/>
			</g>
		</g>
		<g>
			<g>
				<linearGradient id="SVGID_2_" gradientUnits="userSpaceOnUse" x1="63.1713" y1="45.4258" x2="38.4092" y2="73.8607">
					<stop  offset="4.926108e-003" style="stop-color:#0C8E24"/>
					<stop  offset="1" style="stop-color:#3CB71E"/>
				</linearGradient>
				<path fill="url(#SVGID_2_)" d="M61.7,59.2c0.1,1,0,2-0.2,2.9c-1,4.3-4.8,7.6-9.4,7.7c-0.1,0-0.2,0-0.3,0h-2.5
					c-5.7,0-10.3-4.9-9.9-10.7c0.2-2.5,1.4-4.8,3.2-6.6l0.8-0.7l4.6,3.1c1.6,1.1,3.7,1.1,5.4,0l4.6-3.1l0.8,0.7
					c1.8,1.7,2.9,3.9,3.1,6.4C61.7,59.1,61.7,59.1,61.7,59.2z"/>
			</g>
		</g>
		<linearGradient id="SVGID_3_" gradientUnits="userSpaceOnUse" x1="55.4106" y1="83.2153" x2="55.5704" y2="59.085">
			<stop  offset="4.926108e-003" style="stop-color:#0C8E24"/>
			<stop  offset="0.665" style="stop-color:#3CB71E"/>
			<stop  offset="0.9803" style="stop-color:#7BFF1E"/>
		</linearGradient>
		<path fill="url(#SVGID_3_)" d="M51.8,69.9h-2.5C50.1,63.7,55.4,59,61.7,59c0,0.1,0,0.2,0,0.2C62.1,65,57.5,69.9,51.8,69.9z"/>
		<linearGradient id="SVGID_4_" gradientUnits="userSpaceOnUse" x1="52.129" y1="66.0203" x2="61.5158" y2="66.0203">
			<stop  offset="4.926108e-003" style="stop-color:#0C8E24"/>
			<stop  offset="0.665" style="stop-color:#3CB71E"/>
			<stop  offset="0.9803" style="stop-color:#7BFF1E"/>
		</linearGradient>
		<path fill="url(#SVGID_4_)" d="M61.5,62.2c-1,4.3-4.8,7.6-9.4,7.7C53.7,65.9,57.2,63,61.5,62.2z"/>
		<linearGradient id="SVGID_5_" gradientUnits="userSpaceOnUse" x1="45.5121" y1="85.0679" x2="45.6719" y2="60.9376">
			<stop  offset="4.926108e-003" style="stop-color:#0C8E24"/>
			<stop  offset="0.665" style="stop-color:#3CB71E"/>
			<stop  offset="0.9803" style="stop-color:#7BFF1E"/>
		</linearGradient>
		<path fill="url(#SVGID_5_)" d="M49.4,69.9h2.5C51.1,63.7,45.8,59,39.5,59c0,0.1,0,0.2,0,0.2C39,65,43.6,69.9,49.4,69.9z"/>
		<linearGradient id="SVGID_6_" gradientUnits="userSpaceOnUse" x1="47.709" y1="58.3063" x2="41.3169" y2="73.0082">
			<stop  offset="4.926108e-003" style="stop-color:#0C8E24"/>
			<stop  offset="0.665" style="stop-color:#3CB71E"/>
			<stop  offset="0.9803" style="stop-color:#7BFF1E"/>
		</linearGradient>
		<path fill="url(#SVGID_6_)" d="M39.7,62.2c1,4.3,4.8,7.6,9.4,7.7C47.5,65.9,44,63,39.7,62.2z"/>
		<path fill="#40B31B" d="M68.2,33.5c-0.3,5.9-5.2,10.6-11.2,10.6h-2.3c-0.3,0.4-0.5,0.9-0.7,1.3c0-0.2,0-0.3,0-0.5
			c0-6.5,5.2-11.7,11.7-11.7C66.5,33.2,67.4,33.3,68.2,33.5z"/>
		<path fill="#40B31B" d="M32.9,33.5c0.3,5.9,5.2,10.6,11.2,10.6h2.3c0.3,0.4,0.5,0.9,0.7,1.3c0-0.2,0-0.3,0-0.5
			c0-6.5-5.2-11.7-11.7-11.7C34.5,33.2,33.7,33.3,32.9,33.5z"/>
	</g>
	<g>
		<path fill="#D0F98A" d="M51.1,86.5c-1.5,0-2.7-1.2-2.7-2.7c0-1.5,1.2-2.7,2.7-2.7c17.3,0,31.4-14.1,31.4-31.4S68.5,18.4,51.1,18.4
			c-1.5,0-2.7-1.2-2.7-2.7c0-1.5,1.2-2.7,2.7-2.7c20.3,0,36.7,16.5,36.7,36.7S71.4,86.5,51.1,86.5z"/>
	</g>
</g>
</svg>
