<?xml version="1.0" encoding="utf-8"?>
<!-- Generator: Adobe Illustrator 18.0.0, SVG Export Plug-In . SVG Version: 6.00 Build 0)  -->
<!DOCTYPE svg PUBLIC "-//W3C//DTD SVG 1.1//EN" "http://www.w3.org/Graphics/SVG/1.1/DTD/svg11.dtd">
<svg version="1.1" id="Layer_1" xmlns="http://www.w3.org/2000/svg" xmlns:xlink="http://www.w3.org/1999/xlink" x="0px" y="0px"
	 viewBox="0 0 60 60" enable-background="new 0 0 60 60" xml:space="preserve">
<circle fill="#40B31B" cx="29.9" cy="30.1" r="29.9"/>
<g>
	<g>
		<g>
			<path fill="#FFFFFF" d="M10.6,42.5v6.9h38.8v-6.9H10.6z M17.5,47h-2.3v-2.3h2.3V47z M44.8,47h-2.3v-2.3h2.3V47z"/>
		</g>
	</g>
	<g>
		<g>
			<path fill="#FFFFFF" d="M10.6,33.4v6.8h38.8v-6.8H10.6z M17.5,38h-2.3v-2.3h2.3V38z M44.8,38h-2.3v-2.3h2.3V38z"/>
		</g>
	</g>
	<g>
		<g>
			<path fill="#FFFFFF" d="M34.4,19.9c-1.1-0.2-2.2,0.2-3.2,0.9v-1c0-1.3,1-2.3,2.3-2.3v-2.3c-2.5,0-4.5,2-4.5,4.5v1
				c-1-0.8-2.1-1.1-3.2-0.9c-2.3,0.4-4.1,3.1-3.5,6.4c0.2,1.2,0.9,3.2,1.9,4.8h11.9c1-1.6,1.7-3.7,1.9-4.8
				C38.4,22.9,36.6,20.3,34.4,19.9z"/>
		</g>
	</g>
	<g>
		<g>
			<path fill="#FFFFFF" d="M42.5,17.5c0-1.3,1-2.3,2.3-2.3V13c-2.5,0-4.5,2-4.5,4.5V18c-0.7,0.4-1.4,0.9-2,1.6
				c1.8,1.9,2.3,4.6,1.9,7.1c-0.2,1-0.7,2.7-1.5,4.4h9.9c0.6-1.3,0.9-2.9,0.9-4.5C49.4,21.6,46.3,17.5,42.5,17.5z"/>
		</g>
	</g>
	<g>
		<g>
			<path fill="#FFFFFF" d="M24,14.9l-1.6-1.6l-2.6,2.6v-5.3h-2.3v5.3l-2.6-2.6l-1.6,1.6l2.8,2.8c-3,0.7-4.9,3.7-4.3,6.6l0,0.1h3.4
				v2.3h-3.1l0.7,4.5h8.7c-0.9-1.7-1.4-3.5-1.6-4.4c-0.6-3.3,0.6-6.7,3.5-8.3c-0.7-0.4-1.4-0.6-2.2-0.7L24,14.9z"/>
		</g>
	</g>
</g>
</svg>
