<?xml version="1.0" encoding="utf-8"?>
<!-- Generator: Adobe Illustrator 18.0.0, SVG Export Plug-In . SVG Version: 6.00 Build 0)  -->
<!DOCTYPE svg PUBLIC "-//W3C//DTD SVG 1.1//EN" "http://www.w3.org/Graphics/SVG/1.1/DTD/svg11.dtd">
<svg version="1.1" id="Layer_1" xmlns="http://www.w3.org/2000/svg" xmlns:xlink="http://www.w3.org/1999/xlink" x="0px" y="0px"
	 viewBox="0 0 60 60" enable-background="new 0 0 60 60" xml:space="preserve">
<g>
	<g>
		<g>
			<path fill="#FFFFFF" d="M52,18.2l-6.6-1.8H14.5L8,18.2c-4.1,1.1-7,4.4-7.8,8.5l7.2,0.9c0.9,0.1,1.8,0.2,2.6,0.2
				c1.7,0,3.4-0.2,5.1-0.6l1.2-0.3c1.4-0.3,2.8-0.5,4.3-0.5s2.9,0.2,4.3,0.5c1.7,0.4,3.4,0.6,5.1,0.6s3.4-0.2,5.1-0.6
				c1.4-0.3,2.8-0.5,4.3-0.5c1.4,0,2.9,0.2,4.3,0.5l1.2,0.3c1.7,0.4,3.4,0.6,5.1,0.6c0.9,0,1.8-0.1,2.6-0.2l7.2-0.9
				C59.1,22.7,56.1,19.3,52,18.2z"/>
		</g>
	</g>
	<g>
		<g>
			<path fill="#FFFFFF" d="M45,10c-1.1-4.4-5.1-7.5-9.6-7.5H24.6c-4.5,0-8.5,3.1-9.6,7.5l-0.8,3h0.3h30.9h0.3L45,10z"/>
		</g>
	</g>
	<g>
		<g>
			<path fill="#FFFFFF" d="M49.7,31.3c-1.9,0-3.8-0.3-5.7-0.7l-1.2-0.3c-1.1-0.3-2.3-0.4-3.4-0.4c-1.2,0-2.3,0.1-3.4,0.4
				C34,30.7,32,31,30,31c-2,0-4-0.2-6-0.7c-1.1-0.3-2.3-0.4-3.4-0.4c-1.2,0-2.3,0.1-3.4,0.4L16,30.5c-1.9,0.5-3.8,0.7-5.7,0.7
				C9.8,33.1,9.5,35,9.5,37c0,11.3,9.2,20.5,20.5,20.5S50.5,48.3,50.5,37C50.5,35,50.2,33.1,49.7,31.3z M23,34.7
				c1,0,1.8,0.8,1.8,1.8c0,1-0.8,1.8-1.8,1.8c-1,0-1.8-0.8-1.8-1.8C21.2,35.5,22,34.7,23,34.7z M30,49.3c-3.1,0-6.3-1.2-8.7-3.6
				l2.5-2.5c3.4,3.4,9,3.4,12.4,0l2.5,2.5C36.3,48.1,33.1,49.3,30,49.3z M37,38.3c-1,0-1.8-0.8-1.8-1.8s0.8-1.8,1.8-1.8
				c1,0,1.8,0.8,1.8,1.8S38,38.3,37,38.3z"/>
		</g>
	</g>
</g>
</svg>
