<?xml version="1.0" encoding="utf-8"?>
<!-- Generator: Adobe Illustrator 18.0.0, SVG Export Plug-In . SVG Version: 6.00 Build 0)  -->
<!DOCTYPE svg PUBLIC "-//W3C//DTD SVG 1.1//EN" "http://www.w3.org/Graphics/SVG/1.1/DTD/svg11.dtd">
<svg version="1.1" xmlns="http://www.w3.org/2000/svg" xmlns:xlink="http://www.w3.org/1999/xlink" x="0px" y="0px"
	 viewBox="0 0 60 60" enable-background="new 0 0 60 60" xml:space="preserve">
<g id="Layer_1" display="none">
	<g display="inline">
		<g>
			<g>
				<path fill="#B2B2B2" d="M52.7,37.3V22.7c2-0.7,3.5-2.6,3.5-4.9c0-2.9-2.3-5.2-5.2-5.2c-1.3,0-2.4,0.5-3.4,1.3L35.1,6.4
					c0.1-0.3,0.1-0.6,0.1-1c0-2.9-2.3-5.2-5.2-5.2s-5.2,2.3-5.2,5.2c0,0.3,0,0.7,0.1,1l-12.4,7.4c-0.9-0.8-2.1-1.3-3.4-1.3
					c-2.9,0-5.2,2.3-5.2,5.2c0,2.3,1.5,4.2,3.5,4.9v14.6c-2,0.7-3.5,2.6-3.5,4.9c0,2.9,2.3,5.2,5.2,5.2c1.3,0,2.4-0.5,3.4-1.3
					l12.4,7.4c-0.1,0.3-0.1,0.6-0.1,1c0,2.9,2.3,5.2,5.2,5.2s5.2-2.3,5.2-5.2c0-0.3,0-0.7-0.1-1l12.4-7.4c0.9,0.8,2.1,1.3,3.4,1.3
					c2.9,0,5.2-2.3,5.2-5.2C56.2,39.9,54.7,38,52.7,37.3z M49.2,37.3c-2,0.7-3.5,2.6-3.5,4.9c0,0.3,0,0.7,0.1,1l-12.4,7.4
					c-0.9-0.8-2.1-1.3-3.4-1.3c-1.3,0-2.4,0.5-3.4,1.3l-12.4-7.4c0.1-0.3,0.1-0.6,0.1-1c0-2.3-1.5-4.2-3.5-4.9V22.7h0
					c2-0.7,3.5-2.6,3.5-4.9c0-0.3,0-0.7-0.1-1l12.4-7.4c0.9,0.8,2.1,1.3,3.4,1.3c1.3,0,2.4-0.5,3.4-1.3l12.4,7.4
					c-0.1,0.3-0.1,0.6-0.1,1c0,2.3,1.5,4.2,3.5,4.9V37.3z"/>
			</g>
		</g>
		<g>
			<g>
				<path fill="#B2B2B2" d="M31.7,15.3v10.5l4.9-4.9C34.7,18.3,32.7,16.2,31.7,15.3z"/>
			</g>
		</g>
		<g>
			<g>
				<path fill="#B2B2B2" d="M21.3,23.8c-0.7,1.1-1.4,2.3-2,3.6l8.9,8.9v-5.5L21.3,23.8z"/>
			</g>
		</g>
		<g>
			<g>
				<path fill="#B2B2B2" d="M38.7,23.8l-7,7v5.5l8.9-8.9C40.1,26.1,39.4,24.9,38.7,23.8z"/>
			</g>
		</g>
		<g>
			<g>
				<path fill="#B2B2B2" d="M41.9,31L31.7,41.2v4.4c6.7-0.6,10.5-4.9,10.5-12.1C42.2,32.7,42.1,31.9,41.9,31z"/>
			</g>
		</g>
		<g>
			<g>
				<path fill="#B2B2B2" d="M18.1,31c-0.2,0.8-0.3,1.7-0.3,2.5c0,7.1,3.8,11.4,10.5,12.1v-4.4L18.1,31z"/>
			</g>
		</g>
		<g>
			<g>
				<path fill="#B2B2B2" d="M23.3,20.9l4.9,4.9V15.3C27.3,16.2,25.3,18.3,23.3,20.9z"/>
			</g>
		</g>
	</g>
	<g display="inline">
		<g>
			<g>
				<path fill="#B2B2B2" d="M80.7,9.9c-3.5,0-6.3,2.8-6.5,6.2c-0.4,0.6-0.7,1.2-1,1.9c-0.3-0.6-0.6-1.3-1-1.9
					c-0.2-3.5-3-6.2-6.5-6.2H63v0.9c0,3.6,2.9,6.5,6.5,6.5h1.3c0.5,0.9,1,1.9,1.2,2.8l0,0.2l-0.6,0.9l1.8,1.2l1.8-1.2l-0.6-0.9
					c0.2-1,0.7-2.1,1.2-3H77c3.6,0,6.5-2.9,6.5-6.5V9.9H80.7z"/>
			</g>
		</g>
		<g>
			<g>
				<path fill="#B2B2B2" d="M78,22.4l-0.5-0.5l-4.2,2.8L69,21.9l-0.5,0.5c-1.1,1.1-1.8,2.6-1.8,4.1c0,3.2,2.6,5.8,5.8,5.8H74
					c3.2,0,5.8-2.6,5.8-5.8C79.8,25,79.1,23.5,78,22.4z"/>
			</g>
		</g>
		<g>
			<g>
				<path fill="#B2B2B2" d="M80.9,23c0.2,0.9,0.8,1.9,0.8,3.5c0,4.2-3.4,7.6-7.6,7.6h-1.5c-4.2,0-7.6-3.4-7.6-7.6
					c0-1.6,0.5-2.7,0.8-3.5h-8.3v18.7h31.8V23H80.9z"/>
			</g>
		</g>
	</g>
</g>
<g id="Layer_2" display="none">
	<g display="inline">
		<g>
			<g>
				<path fill="#B2B2B2" d="M54.6,53c2.9,0,5.4-2.4,5.4-5.3v-5.3h-5.4c-1.4,0-2.6,0.5-3.5,1.4c-0.9-0.8-2.2-1.4-3.5-1.4h-5.3v5.3
					c0,2.9,2.4,5.3,5.3,5.3h1.8v3.5H38.6L37,42.4H23l-1.6,14.1H10.7V53h1.8c2.9,0,5.3-2.4,5.3-5.3v-5.3h-5.3c-1.4,0-2.6,0.5-3.5,1.4
					C8,43,6.7,42.4,5.4,42.4H0v5.3C0,50.6,2.5,53,5.4,53h1.8v3.5H0V60h60v-3.5h-7.1V53H54.6z"/>
			</g>
		</g>
		<g>
			<g>
				<circle fill="#B2B2B2" cx="30" cy="23.1" r="3.5"/>
			</g>
		</g>
		<g>
			<g>
				<path fill="#B2B2B2" d="M36.4,36.9c-0.1,0-0.1-0.1-0.2-0.1c-2.5-1.5-4.8-3.3-6.3-5.2c-1.5,1.9-3.7,3.7-6.3,5.2
					c-0.1,0-0.1,0.1-0.2,0.1l-0.2,2h13.3L36.4,36.9z"/>
			</g>
		</g>
		<g>
			<g>
				<path fill="#B2B2B2" d="M43.3,24.7c-2.2-1.2-4.4-2.1-6.3-2.4c0,0.3,0.1,0.5,0.1,0.8c0,2.9-1.7,5.4-4.2,6.4
					c1.2,1.5,3.1,3,5.2,4.3c3.5,2,9.8,4.2,11.8,0.7C51.6,31.4,47.7,27.2,43.3,24.7z"/>
			</g>
		</g>
		<g>
			<g>
				<path fill="#B2B2B2" d="M30,0c-3.6,0-5.3,5.7-5.3,10.8c0,2.3,0.4,4.7,1.1,6.7c1.2-0.9,2.6-1.4,4.2-1.4s3,0.5,4.2,1.4
					c0.7-1.9,1.1-4.3,1.1-6.7C35.3,5.7,33.6,0,30,0z"/>
			</g>
		</g>
		<g>
			<g>
				<path fill="#B2B2B2" d="M23,23.1c0-0.3,0.1-0.5,0.1-0.8c-1.9,0.3-4.2,1.2-6.3,2.4c-4.4,2.5-8.3,6.7-6.5,9.8
					c2,3.5,8.2,1.3,11.8-0.7c2.1-1.2,4-2.8,5.2-4.3C24.7,28.4,23,26,23,23.1z"/>
			</g>
		</g>
	</g>
</g>
<g id="Layer_3">
	<g>
		<g>
			<g>
				<path fill="#B2B2B2" d="M44.1,0c-6.6,0-11.9,5.2-12.2,11.7c-0.7,1.1-1.3,2.3-1.8,3.5c-0.5-1.2-1.1-2.4-1.8-3.5
					C27.9,5.2,22.5,0,15.9,0h-5.3v1.8c0,6.8,5.5,12.3,12.3,12.3h2.5c1,1.7,1.8,3.6,2.2,5.3l0,0.3l-1.1,1.7l3.4,2.3l3.4-2.3l-1.1-1.7
					c0.5-1.9,1.3-3.9,2.3-5.6H37c6.8,0,12.3-5.5,12.3-12.3V0H44.1z"/>
			</g>
		</g>
		<g>
			<g>
				<path fill="#B2B2B2" d="M39,23.6l-1-1l-8,5.3l-8-5.3l-1,1c-2.1,2-3.3,4.9-3.3,7.8c0,6,4.9,10.9,10.9,10.9h2.8
					c6,0,10.9-4.9,10.9-10.9C42.3,28.5,41.1,25.6,39,23.6z"/>
			</g>
		</g>
		<g>
			<g>
				<path fill="#B2B2B2" d="M44.4,24.7c0.5,1.7,1.4,3.6,1.4,6.7c0,8-6.5,14.4-14.4,14.4h-2.8c-8,0-14.4-6.5-14.4-14.4
					c0-3.1,1-5,1.4-6.7H0V60h60V24.7H44.4z"/>
			</g>
		</g>
	</g>
</g>
</svg>
