<?xml version="1.0" encoding="utf-8"?>
<!-- Generator: Adobe Illustrator 18.0.0, SVG Export Plug-In . SVG Version: 6.00 Build 0)  -->
<!DOCTYPE svg PUBLIC "-//W3C//DTD SVG 1.1//EN" "http://www.w3.org/Graphics/SVG/1.1/DTD/svg11.dtd">
<svg version="1.1" xmlns="http://www.w3.org/2000/svg" xmlns:xlink="http://www.w3.org/1999/xlink" x="0px" y="0px"
	 viewBox="0 0 60 60" enable-background="new 0 0 60 60" xml:space="preserve">
<g id="Layer_1" display="none">
</g>
<g id="Layer_2" display="none">
</g>
<g id="Layer_3" display="none">
</g>
<g id="Layer_4">
	<g>
		<g>
			<g>
				<rect x="28.2" y="0.1" fill="#B2B2B2" width="3.5" height="7.1"/>
			</g>
		</g>
		<g>
			<g>
				<rect x="12.5" y="17.7" fill="#B2B2B2" width="7" height="3.5"/>
			</g>
		</g>
		<g>
			<g>
				<rect x="40.5" y="17.7" fill="#B2B2B2" width="7" height="3.5"/>
			</g>
		</g>
		<g>
			<g>
				
					<rect x="17.1" y="4.9" transform="matrix(-0.7071 0.7071 -0.7071 -0.7071 38.1125 0.9365)" fill="#B2B2B2" width="3.5" height="7"/>
			</g>
		</g>
		<g>
			<g>
				
					<rect x="37.6" y="6.6" transform="matrix(-0.7071 0.7071 -0.7071 -0.7071 76.138 -14.8132)" fill="#B2B2B2" width="7" height="3.5"/>
			</g>
		</g>
		<g>
			<g>
				<path fill="#B2B2B2" d="M30,10.7c-3.9,0-7,3.1-7,7s3.1,7,7,7s7-3.1,7-7S33.9,10.7,30,10.7z"/>
			</g>
		</g>
		<g>
			<g>
				<polygon fill="#B2B2B2" points="23.6,28.2 21.8,37 28.2,37 28.2,28.2 				"/>
			</g>
		</g>
		<g>
			<g>
				<polygon fill="#B2B2B2" points="49.3,28.2 40,28.2 41.8,37 52.2,37 				"/>
			</g>
		</g>
		<g>
			<g>
				<polygon fill="#B2B2B2" points="38.9,40.5 31.8,40.5 31.8,49.3 40.6,49.3 				"/>
			</g>
		</g>
		<g>
			<g>
				<polygon fill="#B2B2B2" points="21.1,40.5 19.4,49.3 28.2,49.3 28.2,40.5 				"/>
			</g>
		</g>
		<g>
			<g>
				<polygon fill="#B2B2B2" points="6.7,40.5 3.7,49.3 15.8,49.3 17.5,40.5 				"/>
			</g>
		</g>
		<g>
			<g>
				<polygon fill="#B2B2B2" points="36.4,28.2 31.8,28.2 31.8,37 38.2,37 				"/>
			</g>
		</g>
		<g>
			<g>
				<polygon fill="#B2B2B2" points="53.3,40.5 42.5,40.5 44.2,49.3 56.3,49.3 				"/>
			</g>
		</g>
		<g>
			<g>
				<polygon fill="#B2B2B2" points="10.7,28.2 7.8,37 18.2,37 20,28.2 				"/>
			</g>
		</g>
		<g>
			<g>
				<polygon fill="#B2B2B2" points="38.1,56.4 36.3,52.8 23.7,52.8 21.9,56.4 17.7,56.4 17.7,59.9 42.3,59.9 42.3,56.4 				"/>
			</g>
		</g>
	</g>
</g>
</svg>
