<?xml version="1.0" encoding="utf-8"?>
<!-- Generator: Adobe Illustrator 18.0.0, SVG Export Plug-In . SVG Version: 6.00 Build 0)  -->
<!DOCTYPE svg PUBLIC "-//W3C//DTD SVG 1.1//EN" "http://www.w3.org/Graphics/SVG/1.1/DTD/svg11.dtd">
<svg version="1.1" id="Layer_1" xmlns="http://www.w3.org/2000/svg" xmlns:xlink="http://www.w3.org/1999/xlink" x="0px" y="0px"
	 viewBox="0 0 60 60" enable-background="new 0 0 60 60" xml:space="preserve">
<g>
	<path d="M39.9,33.8V10.2c0-5.5-4.4-9.9-9.9-9.9s-9.9,4.4-9.9,9.9v23.6c-3,2.7-5,6.7-5,11.1c0,8.2,6.7,14.9,14.9,14.9
		s14.9-6.7,14.9-14.9C44.9,40.5,43,36.5,39.9,33.8z M30,54.8c-5.5,0-9.9-4.4-9.9-9.9c0-2.9,1.2-5.5,3.3-7.4L25,36V10.2
		c0-2.7,2.2-5,5-5s5,2.2,5,5V36l1.7,1.5c2.1,1.9,3.3,4.5,3.3,7.4C39.9,50.4,35.5,54.8,30,54.8z"/>
	<path d="M32.5,37.9V20.1h-5v17.8c-2.9,1-5,3.8-5,7c0,4.1,3.3,7.4,7.4,7.4s7.4-3.3,7.4-7.4C37.4,41.6,35.4,38.9,32.5,37.9z"/>
</g>
</svg>
