<?xml version="1.0" encoding="utf-8"?>
<!-- Generator: Adobe Illustrator 18.0.0, SVG Export Plug-In . SVG Version: 6.00 Build 0)  -->
<!DOCTYPE svg PUBLIC "-//W3C//DTD SVG 1.1//EN" "http://www.w3.org/Graphics/SVG/1.1/DTD/svg11.dtd">
<svg version="1.1" id="Layer_1" xmlns="http://www.w3.org/2000/svg" xmlns:xlink="http://www.w3.org/1999/xlink" x="0px" y="0px"
	 viewBox="0 0 199.5 60.4" enable-background="new 0 0 199.5 60.4" xml:space="preserve">
<g>
	<path fill="#1C273D" d="M42.1,60.2L38,49.9H17.7l-3.9,10.3H0L22.1,7.6h12.3l21.8,52.6H42.1z M28,21.7l-6.7,18h13.2L28,21.7z"/>
	<path fill="#1C273D" d="M73.4,60.2l-7.9-11.4l-8.2,11.4H43.2L58,40.8L44.6,23.2h2.1c7.6,0,14.6,3.7,19,9.9l0,0l0,0
		c4.4-6.2,11.5-9.9,19.1-9.9h1.6L73.1,40.8l14.6,19.4H73.4z"/>
	<path fill="#1C273D" d="M148.5,60.2V40c0-4.1-1.1-7.8-5.5-7.8c-4.3,0-6.5,3.7-6.5,7.9v20.1h-12.3v-37H136v5.1h0.1
		c1.7-3.3,5.9-6.2,11.1-6.2c10,0,13.5,7.7,13.5,15.1v22.9H148.5z"/>
	<path fill="#1C273D" d="M187.3,60.2V40c0-4.1-1.1-7.8-5.5-7.8c-4.3,0-6.5,3.7-6.5,7.9v20.1H163v-37h11.8v5.1h0.1
		c1.7-3.3,5.9-6.2,11.1-6.2c10,0,13.5,7.7,13.5,15.1v22.9H187.3z"/>
	<g>
		<g>
			<linearGradient id="SVGID_1_" gradientUnits="userSpaceOnUse" x1="103.6014" y1="-1.2872" x2="103.6014" y2="32.4929">
				<stop  offset="4.926108e-003" style="stop-color:#0C8E24"/>
				<stop  offset="0.665" style="stop-color:#3CB71E"/>
				<stop  offset="0.9803" style="stop-color:#7BFF1E"/>
			</linearGradient>
			<path fill="url(#SVGID_1_)" d="M131.2,0v2.5c0,0.3,0,0.6,0,0.9c-0.5,9.2-8.2,16.6-17.6,16.6h-3.5c-0.4,0.7-0.8,1.4-1.1,2.1
				c-0.9,1.9-1.7,3.9-2.1,6l1.6,2.4l-4.9,3.2l-4.9-3.2l1.6-2.4l-0.1-0.4c-0.4-1.6-1-3.4-1.8-5c-0.4-0.9-0.9-1.8-1.4-2.6h-3.5
				C83.9,20.1,76,12.2,76,2.5V0h7.5c9.4,0,17.1,7.4,17.5,16.7c1,1.6,1.9,3.3,2.6,5c0.7-1.7,1.6-3.4,2.6-5C106.6,7.4,114.3,0,123.7,0
				H131.2z"/>
		</g>
	</g>
	<g>
		<g>
			<linearGradient id="SVGID_2_" gradientUnits="userSpaceOnUse" x1="123.3675" y1="22.1266" x2="84.6292" y2="66.6108">
				<stop  offset="4.926108e-003" style="stop-color:#0C8E24"/>
				<stop  offset="1" style="stop-color:#3CB71E"/>
			</linearGradient>
			<path fill="url(#SVGID_2_)" d="M121.1,43.7c0.1,1.6,0,3.1-0.4,4.6c-1.5,6.7-7.5,11.9-14.7,12.1c-0.2,0-0.3,0-0.5,0h-4
				c-9,0-16.2-7.6-15.6-16.7c0.3-3.9,2.1-7.6,5-10.3l1.2-1.2l7.2,4.8c2.5,1.7,5.9,1.7,8.4,0l7.2-4.8l1.2,1.2
				c2.7,2.6,4.5,6.2,4.9,9.9C121.1,43.5,121.1,43.6,121.1,43.7z"/>
		</g>
	</g>
	<linearGradient id="SVGID_3_" gradientUnits="userSpaceOnUse" x1="111.2265" y1="81.2454" x2="111.4765" y2="43.4954">
		<stop  offset="4.926108e-003" style="stop-color:#0C8E24"/>
		<stop  offset="0.665" style="stop-color:#3CB71E"/>
		<stop  offset="0.9803" style="stop-color:#7BFF1E"/>
	</linearGradient>
	<path fill="url(#SVGID_3_)" d="M105.6,60.4h-3.9c1.3-9.6,9.5-17,19.4-17.1c0,0.1,0,0.2,0,0.4C121.8,52.8,114.5,60.4,105.6,60.4z"/>
	<linearGradient id="SVGID_4_" gradientUnits="userSpaceOnUse" x1="106.0927" y1="54.3451" x2="120.7777" y2="54.3451">
		<stop  offset="4.926108e-003" style="stop-color:#0C8E24"/>
		<stop  offset="0.665" style="stop-color:#3CB71E"/>
		<stop  offset="0.9803" style="stop-color:#7BFF1E"/>
	</linearGradient>
	<path fill="url(#SVGID_4_)" d="M120.8,48.3c-1.5,6.7-7.5,11.9-14.7,12.1C108.6,54.2,114.1,49.5,120.8,48.3z"/>
	<linearGradient id="SVGID_5_" gradientUnits="userSpaceOnUse" x1="95.7411" y1="84.1437" x2="95.9911" y2="46.3937">
		<stop  offset="4.926108e-003" style="stop-color:#0C8E24"/>
		<stop  offset="0.665" style="stop-color:#3CB71E"/>
		<stop  offset="0.9803" style="stop-color:#7BFF1E"/>
	</linearGradient>
	<path fill="url(#SVGID_5_)" d="M101.8,60.4h3.9c-1.3-9.6-9.5-17-19.4-17.1c0,0.1,0,0.2,0,0.4C85.6,52.8,92.8,60.4,101.8,60.4z"/>
	<linearGradient id="SVGID_6_" gradientUnits="userSpaceOnUse" x1="99.178" y1="42.2771" x2="89.178" y2="65.2771">
		<stop  offset="4.926108e-003" style="stop-color:#0C8E24"/>
		<stop  offset="0.665" style="stop-color:#3CB71E"/>
		<stop  offset="0.9803" style="stop-color:#7BFF1E"/>
	</linearGradient>
	<path fill="url(#SVGID_6_)" d="M86.6,48.3c1.5,6.7,7.5,11.9,14.7,12.1C98.8,54.2,93.3,49.5,86.6,48.3z"/>
	<path fill="#40B31B" d="M131.2,3.4c-0.5,9.2-8.2,16.6-17.6,16.6h-3.5c-0.4,0.7-0.8,1.4-1.1,2.1c0-0.3,0-0.5,0-0.8
		C109,11.2,117.1,3,127.3,3C128.6,3,129.9,3.2,131.2,3.4z"/>
	<path fill="#40B31B" d="M76,3.4c0.5,9.2,8.2,16.6,17.6,16.6h3.5c0.4,0.7,0.8,1.4,1.1,2.1c0-0.3,0-0.5,0-0.8C98.2,11.2,90,3,79.9,3
		C78.6,3,77.3,3.2,76,3.4z"/>
</g>
</svg>
