<?xml version="1.0" encoding="utf-8"?>
<!-- Generator: Adobe Illustrator 18.0.0, SVG Export Plug-In . SVG Version: 6.00 Build 0)  -->
<!DOCTYPE svg PUBLIC "-//W3C//DTD SVG 1.1//EN" "http://www.w3.org/Graphics/SVG/1.1/DTD/svg11.dtd">
<svg version="1.1" id="Layer_1" xmlns="http://www.w3.org/2000/svg" xmlns:xlink="http://www.w3.org/1999/xlink" x="0px" y="0px"
	 viewBox="0 0 60 60" enable-background="new 0 0 60 60" xml:space="preserve">
<g>
	<g>
		<g>
			<path fill="#FFFFFF" d="M0.4,49.1v10.5h59.2V49.1H0.4z M10.9,56H7.5v-3.5h3.5V56z M52.5,56h-3.5v-3.5h3.5V56z"/>
		</g>
	</g>
	<g>
		<g>
			<path fill="#FFFFFF" d="M0.4,35.2v10.4h59.2V35.2H0.4z M10.9,42.1H7.5v-3.5h3.5V42.1z M52.5,42.1h-3.5v-3.5h3.5V42.1z"/>
		</g>
	</g>
	<g>
		<g>
			<path fill="#FFFFFF" d="M36.6,14.6c-1.7-0.3-3.4,0.2-4.9,1.4v-1.6c0-1.9,1.6-3.5,3.5-3.5V7.5c-3.8,0-6.9,3.1-6.9,6.9V16
				c-1.5-1.2-3.2-1.7-4.9-1.4c-3.5,0.6-6.2,4.7-5.3,9.7c0.3,1.8,1.3,4.9,2.9,7.4h18.1c1.6-2.5,2.6-5.6,2.9-7.4
				C42.9,19.2,40.1,15.2,36.6,14.6z"/>
		</g>
	</g>
	<g>
		<g>
			<path fill="#FFFFFF" d="M49.1,10.9c0-1.9,1.6-3.5,3.5-3.5V4c-3.8,0-6.9,3.1-6.9,6.9v0.8c-1.1,0.6-2.2,1.4-3.1,2.4
				c2.8,3,3.6,7,2.9,10.8c-0.3,1.5-1,4.2-2.3,6.8h15.1c0.9-2,1.4-4.4,1.4-6.9C59.6,17.1,54.8,10.9,49.1,10.9z"/>
		</g>
	</g>
	<g>
		<g>
			<path fill="#FFFFFF" d="M20.8,6.9l-2.5-2.5l-4,4V0.4h-3.5v8.1l-4-4L4.5,6.9l4.2,4.2c-4.6,1.1-7.4,5.6-6.5,10l0,0.1h5.2v3.5H2.7
				l1,6.9H17c-1.3-2.6-2.1-5.3-2.4-6.8c-0.9-5,0.8-10.3,5.3-12.7c-1-0.6-2.1-1-3.3-1.1L20.8,6.9z"/>
		</g>
	</g>
</g>
</svg>
